<svg xmlns="http://www.w3.org/2000/svg" xmlns:xlink="http://www.w3.org/1999/xlink" width="500" zoomAndPan="magnify" viewBox="0 0 375 374.999991" height="500" preserveAspectRatio="xMidYMid meet" version="1.2"><defs><clipPath id="b364e3dff0"><path d="M 68 37.5 L 306 37.5 L 306 240 L 68 240 Z M 68 37.5 "/></clipPath><clipPath id="9b530fee31"><path d="M 60.902344 231 L 314.402344 231 L 314.402344 256.5 L 60.902344 256.5 Z M 60.902344 231 "/></clipPath></defs><g id="4b1a80c9df"><path style=" stroke:none;fill-rule:evenodd;fill:#ffffff;fill-opacity:1;" d="M 284.433594 239.109375 C 282.355469 239.109375 280.722656 237.476562 280.722656 235.398438 L 280.722656 159.308594 L 200.773438 159.308594 L 200.773438 235.398438 C 200.773438 237.476562 199.144531 239.109375 197.066406 239.109375 C 194.992188 239.109375 193.359375 237.476562 193.359375 235.398438 L 193.359375 155.746094 C 193.359375 153.671875 194.992188 152.039062 197.066406 152.039062 L 284.285156 152.039062 C 286.210938 152.039062 287.992188 153.671875 287.992188 155.746094 L 287.992188 235.398438 C 287.992188 237.476562 286.359375 239.109375 284.433594 239.109375 Z M 284.433594 239.109375 "/><path style=" stroke:none;fill-rule:evenodd;fill:#ffffff;fill-opacity:1;" d="M 284.433594 179.925781 L 197.214844 179.925781 C 195.140625 179.925781 193.507812 178.144531 193.507812 176.214844 C 193.507812 174.140625 195.140625 172.507812 197.214844 172.507812 L 284.433594 172.507812 C 286.507812 172.507812 288.140625 174.140625 288.140625 176.214844 C 288.140625 178.144531 286.359375 179.925781 284.433594 179.925781 Z M 284.433594 179.925781 "/><path style=" stroke:none;fill-rule:evenodd;fill:#ffffff;fill-opacity:1;" d="M 284.433594 199.949219 L 197.214844 199.949219 C 195.140625 199.949219 193.507812 198.316406 193.507812 196.242188 C 193.507812 194.3125 195.140625 192.53125 197.214844 192.53125 L 284.433594 192.53125 C 286.507812 192.53125 288.140625 194.3125 288.140625 196.242188 C 288.140625 198.316406 286.359375 199.949219 284.433594 199.949219 Z M 284.433594 199.949219 "/><path style=" stroke:none;fill-rule:evenodd;fill:#ffffff;fill-opacity:1;" d="M 284.433594 220.121094 L 197.214844 220.121094 C 195.140625 220.121094 193.507812 218.488281 193.507812 216.414062 C 193.507812 214.335938 195.140625 212.707031 197.214844 212.707031 L 284.433594 212.707031 C 286.507812 212.707031 288.140625 214.335938 288.140625 216.414062 C 288.140625 218.488281 286.359375 220.121094 284.433594 220.121094 Z M 284.433594 220.121094 "/><path style=" stroke:none;fill-rule:evenodd;fill:#ffffff;fill-opacity:1;" d="M 177.636719 239.109375 C 175.707031 239.109375 174.078125 237.476562 174.078125 235.398438 L 174.078125 159.308594 L 94.277344 159.308594 L 94.277344 235.398438 C 94.277344 237.476562 92.644531 239.109375 90.566406 239.109375 C 88.492188 239.109375 86.859375 237.476562 86.859375 235.398438 L 86.859375 155.746094 C 86.859375 153.671875 88.492188 152.039062 90.566406 152.039062 L 177.488281 152.039062 C 179.5625 152.039062 181.195312 153.671875 181.195312 155.746094 L 181.195312 235.398438 C 181.195312 237.476562 179.5625 239.109375 177.636719 239.109375 Z M 177.636719 239.109375 "/><path style=" stroke:none;fill-rule:evenodd;fill:#ffffff;fill-opacity:1;" d="M 162.65625 239.109375 C 160.578125 239.109375 158.945312 237.476562 158.945312 235.398438 L 158.945312 212.558594 L 143.371094 212.558594 L 143.371094 235.398438 C 143.371094 237.476562 141.742188 239.109375 139.664062 239.109375 C 137.585938 239.109375 135.957031 237.476562 135.957031 235.398438 L 135.957031 208.847656 C 135.957031 206.773438 137.585938 205.140625 139.664062 205.140625 L 162.65625 205.140625 C 164.730469 205.140625 166.363281 206.773438 166.363281 208.847656 L 166.363281 235.398438 C 166.214844 237.476562 164.582031 239.109375 162.65625 239.109375 Z M 162.65625 239.109375 "/><path style=" stroke:none;fill-rule:evenodd;fill:#ffffff;fill-opacity:1;" d="M 128.539062 239.109375 C 126.464844 239.109375 124.832031 237.476562 124.832031 235.398438 L 124.832031 212.558594 L 108.960938 212.558594 L 108.960938 235.398438 C 108.960938 237.476562 107.328125 239.109375 105.253906 239.109375 C 103.324219 239.109375 101.691406 237.476562 101.691406 235.398438 L 101.691406 208.847656 C 101.691406 206.773438 103.324219 205.140625 105.253906 205.140625 L 128.390625 205.140625 C 130.46875 205.140625 132.097656 206.773438 132.097656 208.847656 L 132.097656 235.398438 C 132.097656 237.476562 130.46875 239.109375 128.539062 239.109375 Z M 128.539062 239.109375 "/><path style=" stroke:none;fill-rule:evenodd;fill:#ffffff;fill-opacity:1;" d="M 145.894531 212.558594 L 123.050781 212.558594 C 120.976562 212.558594 119.34375 210.925781 119.34375 208.847656 L 119.34375 182.59375 C 119.34375 180.519531 120.976562 178.886719 123.050781 178.886719 L 146.042969 178.886719 C 148.117188 178.886719 149.75 180.519531 149.75 182.59375 L 149.75 208.996094 C 149.601562 210.925781 147.824219 212.558594 145.894531 212.558594 Z M 126.464844 205.289062 L 142.335938 205.289062 L 142.335938 186.007812 L 126.464844 186.007812 Z M 126.464844 205.289062 "/><g clip-rule="nonzero" clip-path="url(#b364e3dff0)"><path style=" stroke:none;fill-rule:evenodd;fill:#ffffff;fill-opacity:1;" d="M 302.378906 239.109375 C 300.304688 239.109375 298.671875 237.476562 298.671875 235.398438 L 298.671875 94.488281 L 187.722656 45.09375 L 76.179688 94.785156 L 76.179688 235.546875 C 76.179688 237.625 74.546875 239.253906 72.472656 239.253906 C 70.394531 239.253906 68.761719 237.625 68.761719 235.546875 L 68.761719 92.261719 C 68.761719 90.78125 69.503906 89.59375 70.839844 89 L 186.386719 37.976562 C 187.425781 37.53125 188.464844 37.53125 189.207031 37.976562 L 303.714844 89 C 305.050781 89.59375 305.792969 90.78125 305.792969 92.261719 L 305.792969 235.398438 C 306.089844 237.476562 304.457031 239.109375 302.378906 239.109375 Z M 302.378906 239.109375 "/></g><path style=" stroke:none;fill-rule:evenodd;fill:#ffffff;fill-opacity:1;" d="M 240.378906 110.804688 L 134.324219 110.804688 C 132.246094 110.804688 130.617188 109.171875 130.617188 107.097656 L 130.617188 80.25 C 130.617188 78.320312 132.246094 76.6875 134.324219 76.6875 L 240.230469 76.6875 C 242.308594 76.6875 243.9375 78.320312 243.9375 80.25 L 243.9375 107.097656 C 243.9375 109.171875 242.308594 110.804688 240.378906 110.804688 Z M 138.03125 103.535156 L 236.671875 103.535156 L 236.671875 83.957031 L 138.03125 83.957031 Z M 138.03125 103.535156 "/><path style=" stroke:none;fill-rule:evenodd;fill:#ffffff;fill-opacity:1;" d="M 220.058594 97.15625 L 214.125 97.15625 C 212.046875 97.15625 210.417969 95.527344 210.417969 93.449219 C 210.417969 91.375 212.046875 89.742188 214.125 89.742188 L 220.058594 89.742188 C 222.132812 89.742188 223.765625 91.375 223.765625 93.449219 C 223.765625 95.527344 222.132812 97.15625 220.058594 97.15625 Z M 220.058594 97.15625 "/><path style=" stroke:none;fill-rule:evenodd;fill:#ffffff;fill-opacity:1;" d="M 190.242188 97.15625 L 184.460938 97.15625 C 182.382812 97.15625 180.75 95.527344 180.75 93.449219 C 180.75 91.375 182.382812 89.742188 184.460938 89.742188 L 190.242188 89.742188 C 192.320312 89.742188 193.953125 91.375 193.953125 93.449219 C 193.953125 95.527344 192.320312 97.15625 190.242188 97.15625 Z M 190.242188 97.15625 "/><path style=" stroke:none;fill-rule:evenodd;fill:#ffffff;fill-opacity:1;" d="M 160.578125 97.15625 L 154.941406 97.15625 C 152.867188 97.15625 151.234375 95.527344 151.234375 93.449219 C 151.234375 91.375 152.867188 89.742188 154.941406 89.742188 L 160.578125 89.742188 C 162.65625 89.742188 164.285156 91.375 164.285156 93.449219 C 164.285156 95.527344 162.507812 97.15625 160.578125 97.15625 Z M 160.578125 97.15625 "/><g clip-rule="nonzero" clip-path="url(#9b530fee31)"><path style=" stroke:none;fill-rule:evenodd;fill:#ffffff;fill-opacity:1;" d="M 310.390625 256.164062 L 64.609375 256.164062 C 62.535156 256.164062 60.902344 254.535156 60.902344 252.457031 L 60.902344 235.398438 C 60.902344 233.324219 62.535156 231.691406 64.609375 231.691406 L 310.390625 231.691406 C 312.464844 231.691406 314.097656 233.324219 314.097656 235.398438 L 314.097656 252.457031 C 313.800781 254.535156 312.167969 256.164062 310.390625 256.164062 Z M 68.171875 248.898438 L 306.679688 248.898438 L 306.679688 239.109375 L 68.171875 239.109375 Z M 68.171875 248.898438 "/></g><g style="fill:#ffffff;fill-opacity:1;"><g transform="translate(69.32808, 310.197548)"><path style="stroke:none" d="M 70.8125 0 L 56.109375 0 L 45.734375 -27.3125 L 35.359375 0 L 20.65625 0 L 0.4375 -42.015625 L 18.3125 -42.015625 L 28.859375 -15.328125 L 40.171875 -42.015625 L 51.296875 -42.015625 L 62.609375 -15.328125 L 73.15625 -42.015625 L 91.03125 -42.015625 Z M 70.8125 0 "/></g></g><g style="fill:#ffffff;fill-opacity:1;"><g transform="translate(160.775054, 310.197548)"><path style="stroke:none" d="M 84.609375 0 L 66.96875 0 L 66.96875 -26.8125 L 51.21875 0 L 38.0625 0 L 22.328125 -26.8125 L 22.328125 0 L 4.6875 0 L 4.6875 -42.046875 L 25.640625 -42.046875 L 44.65625 -12.015625 L 63.640625 -42.046875 L 84.609375 -42.046875 Z M 84.609375 0 "/></g></g><g style="fill:#ffffff;fill-opacity:1;"><g transform="translate(250.054483, 310.197548)"><path style="stroke:none" d="M 27.78125 0.90625 C 22.09375 0.90625 17.507812 0.296875 14.03125 -0.921875 C 10.550781 -2.140625 7.90625 -3.816406 6.09375 -5.953125 C 4.28125 -8.097656 3.0625 -10.566406 2.4375 -13.359375 L 21.15625 -13.359375 C 22.539062 -11.367188 24.75 -10.375 27.78125 -10.375 C 30.800781 -10.375 33.003906 -11.367188 34.390625 -13.359375 C 34.515625 -13.554688 34.578125 -13.734375 34.578125 -13.890625 C 34.578125 -14.410156 33.875 -14.800781 32.46875 -15.0625 C 31.070312 -15.332031 28.988281 -15.535156 26.21875 -15.671875 C 22.726562 -15.828125 19.054688 -16.195312 15.203125 -16.78125 C 6.628906 -18.113281 2.34375 -21.5625 2.34375 -27.125 C 2.34375 -27.59375 2.375 -28.09375 2.4375 -28.625 C 3.0625 -31.414062 4.28125 -33.878906 6.09375 -36.015625 C 7.90625 -38.160156 10.550781 -39.84375 14.03125 -41.0625 C 17.507812 -42.28125 22.09375 -42.890625 27.78125 -42.890625 C 33.457031 -42.890625 38.035156 -42.28125 41.515625 -41.0625 C 44.992188 -39.84375 47.640625 -38.160156 49.453125 -36.015625 C 51.265625 -33.878906 52.484375 -31.414062 53.109375 -28.625 L 34.390625 -28.625 C 33.003906 -30.613281 30.800781 -31.609375 27.78125 -31.609375 C 24.75 -31.609375 22.539062 -30.613281 21.15625 -28.625 C 21.050781 -28.46875 21 -28.320312 21 -28.1875 C 21 -27.71875 21.664062 -27.367188 23 -27.140625 C 24.34375 -26.921875 26.316406 -26.734375 28.921875 -26.578125 C 31.535156 -26.421875 34.316406 -26.164062 37.265625 -25.8125 C 40.210938 -25.457031 42.96875 -24.84375 45.53125 -23.96875 C 48.101562 -23.101562 50.113281 -21.820312 51.5625 -20.125 C 52.695312 -18.820312 53.265625 -17.160156 53.265625 -15.140625 C 53.265625 -14.578125 53.210938 -13.984375 53.109375 -13.359375 C 52.484375 -10.566406 51.265625 -8.097656 49.453125 -5.953125 C 47.640625 -3.816406 44.992188 -2.140625 41.515625 -0.921875 C 38.035156 0.296875 33.457031 0.90625 27.78125 0.90625 Z M 27.78125 0.90625 "/></g></g></g></svg>